<?xml version="1.0" encoding="UTF-8"?>
<!DOCTYPE svg PUBLIC "-//W3C//DTD SVG 1.1//EN" "http://www.w3.org/Graphics/SVG/1.1/DTD/svg11.dtd">
<!-- Creator: CorelDRAW 2020 (64-Bit) -->
<svg xmlns="http://www.w3.org/2000/svg" xml:space="preserve" width="210mm" height="297mm" version="1.1" style="shape-rendering:geometricPrecision; text-rendering:geometricPrecision; image-rendering:optimizeQuality; fill-rule:evenodd; clip-rule:evenodd"
viewBox="0 0 21000 29700"
 xmlns:xlink="http://www.w3.org/1999/xlink"
 xmlns:xodm="http://www.corel.com/coreldraw/odm/2003">
 <defs>
  <style type="text/css">
   <![CDATA[
    .fil2 {fill:#FEFEFE}
    .fil0 {fill:#B2B3B3}
    .fil3 {fill:#22201E}
    .fil1 {fill:#0060AA}
   ]]>
  </style>
 </defs>
 <g id="Layer_x0020_1">
  <metadata id="CorelCorpID_0Corel-Layer"/>
  <g id="_2285414779392">
   <polygon class="fil0" points="7276.33,18314.91 13731.77,18314.91 13731.77,18821.83 7276.33,18821.83 "/>
   <polygon class="fil1" points="7276.33,10076.75 13731.77,10076.75 13731.77,18191.21 7276.33,18191.21 "/>
   <polygon class="fil2" points="12841.49,14922.53 12841.49,15295.74 12380.64,15295.74 12380.64,17696.71 11604.39,17696.71 11604.39,15295.74 11144.81,15295.74 11144.81,14922.53 "/>
   <polygon class="fil2" points="11044.07,14922.53 11044.07,17696.71 10267.18,17696.71 10267.18,14922.53 "/>
   <polygon class="fil2" points="10133.99,14922.53 10133.99,17696.71 9341.9,17696.71 8792.74,16264.5 8792.74,17696.71 8143.66,17696.71 8143.66,14922.53 9049.23,14922.53 9473.74,16171.88 9451.44,14922.53 "/>
   <path class="fil3" d="M7253.96 19154.02l326.83 0 13.07 0 258.84 0 9.81 0 394.16 0 13.07 0 358.86 0 0 50.16 -52.29 0 0 200.67 0 62.7 -58.83 0 0 -62.7 0 -81.52 -65.36 0c4.35,5.01 7.62,10.13 9.8,15.36 2.18,5.22 3.27,10.55 3.27,15.99 0,24.25 -8.94,44.94 -26.81,62.08 -17.86,17.13 -39.43,25.7 -64.7,25.7 -25.28,0 -46.85,-8.57 -64.72,-25.7 -17.86,-17.14 -26.79,-37.83 -26.79,-62.08 0,-24.25 8.93,-44.94 26.79,-62.08 17.87,-17.14 39.44,-25.71 64.72,-25.71l143.8 0 0 -62.71 -247.74 0 -13.07 0 -39.22 0 0 200.67 0 62.7 -58.83 0 0 -62.7 0 -94.07 -58.83 0c4.36,5.02 7.63,11.29 9.81,18.81 2.17,7.53 3.26,15.89 3.26,25.09 0,25.08 -9.58,46.51 -28.75,64.28 -19.18,17.76 -42.27,26.64 -69.29,26.64 -38.79,0 -71.91,-15.57 -99.36,-46.71 -27.46,-31.15 -41.18,-68.88 -41.18,-113.19l55.56 -6.27c0,30.11 8.28,55.91 24.84,77.44 16.55,21.53 36.6,32.29 60.14,32.29 10.89,0 20.15,-3.02 27.77,-9.08 7.64,-6.07 11.45,-13.48 11.45,-22.27 0,-12.96 -4.47,-24.03 -13.41,-33.23 -8.93,-9.19 -19.72,-13.8 -32.35,-13.8l-13.08 0 0 -56.43 163.42 0 0 -50.17 -296.11 0 -9.81 0 -36.59 0 0 75.25 -117.66 0c-3.49,0 -6.54,1.25 -9.15,3.77 -2.62,2.5 -3.93,5.43 -3.93,8.77 0,5.02 1.97,9.41 5.89,13.17 3.92,3.76 8.49,5.64 13.72,5.64 11.77,-4.18 22.66,-6.27 32.68,-6.27 25.28,0 46.85,7.95 64.72,23.83 17.87,15.89 26.81,35.12 26.81,57.7 0,10.44 -2.29,21.1 -6.87,31.97 -4.58,10.87 -11.01,21.11 -19.29,30.73l-45.75 -31.35c4.36,-5.02 7.62,-10.14 9.8,-15.37 2.18,-5.22 3.27,-10.55 3.27,-15.98 0,-7.11 -3.15,-13.07 -9.47,-17.88 -6.32,-4.81 -14.06,-7.21 -23.22,-7.21 -16.12,0 -29.95,4.91 -41.5,14.74 -11.55,9.82 -17.32,21.63 -17.32,35.43 0,17.13 8.28,31.87 24.84,44.2 16.56,12.33 36.6,18.5 60.14,18.5l52.29 0 0 44.74c4.59,2.08 8.96,4.63 13.07,7.62 13.51,9.82 20.26,21.63 20.26,35.43 0,17.13 -10.24,31.87 -30.72,44.2 -20.48,12.34 -45.1,18.5 -73.87,18.5 -31.81,0 -61.22,-6.38 -88.23,-19.12 -27.02,-12.76 -48.82,-30.42 -65.37,-52.99l29.41 -25.08c10.9,18.39 27.45,32.92 49.68,43.57 22.22,10.67 47.06,16 74.51,16 16.13,0 29.97,-2.41 41.51,-7.21 11.55,-4.81 17.33,-10.77 17.33,-17.87 0,-5.02 -2.29,-9.41 -6.87,-13.17 -4.58,-3.76 -9.91,-5.64 -16.01,-5.64 -6.1,0 -11.44,1.56 -16.01,4.7 -4.58,3.14 -6.87,6.79 -6.87,10.97l-39.22 0c2.17,-11.29 8.93,-21.22 20.26,-29.78 2.59,-1.96 5.3,-3.78 8.16,-5.44 -32.57,-2.84 -60.87,-14.19 -84.96,-34.07 -28.11,-23.2 -42.16,-51.31 -42.16,-84.33 0,-13.38 2.83,-26.14 8.5,-38.25 5.66,-12.13 13.72,-22.37 24.18,-30.74 -10.46,-8.35 -18.52,-16.92 -24.18,-25.7 -5.67,-8.78 -8.5,-16.93 -8.5,-24.46 0,-15.46 6.43,-28.74 19.29,-39.81 12.85,-11.08 28.21,-16.62 46.07,-16.62l71.91 0 0 -25.09 -163.42 0 -13.07 0 -39.22 0 0 200.67 0 62.7 -58.83 0 0 -56.43c-10.02,7.94 -21.79,14.11 -35.3,18.49 -13.51,4.39 -27.89,6.58 -43.13,6.58 -34.44,0 -63.74,-10.45 -87.92,-31.34 -24.19,-20.91 -36.29,-45.99 -36.29,-75.26 0,-27.58 12.1,-51.2 36.29,-70.85 24.18,-19.65 53.48,-29.47 87.92,-29.47 15.24,0 29.62,2.19 43.13,6.58 13.51,4.39 25.28,10.56 35.3,18.5l0 -50.17 -228.78 0 0 -50.16zm84.98 175.57c0,14.64 6.74,27.18 20.26,37.63 13.5,10.45 29.63,15.67 48.37,15.67 25.28,0 40.53,-2.08 45.76,-6.27l-104.59 -72.11c-3.06,2.51 -5.45,5.96 -7.19,10.35 -1.74,4.39 -2.61,9.3 -2.61,14.73zm35.95 -43.89l101.31 68.98c2.18,-2.09 3.82,-5.33 4.91,-9.72 1.08,-4.39 1.63,-9.52 1.63,-15.37 0,-13.79 -7.62,-25.6 -22.88,-35.42 -15.25,-9.83 -33.77,-14.74 -55.55,-14.74 -6.11,0 -11.56,0.53 -16.35,1.57 -4.79,1.05 -9.15,2.62 -13.07,4.7zm966.1 68.98c0,8.78 3.15,16.2 9.48,22.25 6.32,6.07 14.05,9.11 23.21,9.11 9.14,0 16.88,-3.04 23.2,-9.11 6.32,-6.05 9.48,-13.47 9.48,-22.25 0,-8.78 -3.16,-16.2 -9.48,-22.26 -6.32,-6.06 -14.06,-9.09 -23.2,-9.09 -9.16,0 -16.89,3.03 -23.21,9.09 -6.33,6.06 -9.48,13.48 -9.48,22.26zm405.27 -200.66l52.29 0c-6.53,-7.1 -11.44,-14.42 -14.7,-21.95 -3.27,-7.52 -4.9,-14.83 -4.9,-21.94 0,-31.36 17.21,-58 51.64,-79.95 34.42,-21.95 76.04,-32.92 124.84,-32.92 48.81,0 90.43,10.97 124.85,32.92 34.43,21.95 51.64,48.59 51.64,79.95 0,7.53 -1.09,14.42 -3.26,20.69 -2.19,6.27 -5.45,11.92 -9.81,16.93l-58.83 0c4.35,-5.01 7.63,-10.66 9.81,-16.93 2.17,-6.27 3.26,-13.16 3.26,-20.69 0,-17.14 -11.44,-31.88 -34.31,-44.21 -22.89,-12.33 -50.66,-18.5 -83.35,-18.5 -30.5,0 -56.65,6.17 -78.44,18.5 -21.78,12.33 -32.68,27.07 -32.68,44.21 0,9.2 1.09,17.55 3.27,25.08 2.18,7.53 5.44,13.8 9.8,18.81l39.22 0 13.07 0 255.58 0 13.08 0 309.83 0 13.08 0 137.26 0 13.08 0 348.4 0 0 50.16 -52.29 0 0 200.67 0 62.7 -58.83 0 0 -62.7 0 -3.14c-11.34,10.87 -24.4,19.33 -39.23,25.4 -14.81,6.06 -30.06,9.08 -45.76,9.08 -39.64,0 -73.53,-13.48 -101.63,-40.44 -28.11,-26.97 -42.17,-59.47 -42.17,-97.51l0 -12.54 65.37 0c14.38,0 26.69,-4.28 36.93,-12.85 10.25,-8.57 15.36,-18.92 15.36,-31.04 0,-10.45 -5.11,-19.34 -15.36,-26.65 -10.24,-7.31 -22.55,-10.98 -36.93,-10.98l-73.86 0 -13.08 0 -39.22 0 0 200.67 0 62.7 -58.82 0 0 -62.7 0 -200.67 -39.22 0 -13.08 0 -39.22 0 0 200.67 0 62.7 -58.83 0 0 -62.7 0 -100.34 -78.43 0c-16.13,0 -29.97,5.54 -41.52,16.62 -11.55,11.08 -17.32,24.35 -17.32,39.82 0,12.54 4.91,24.14 14.71,34.8 9.8,10.66 22.33,17.87 37.59,21.64l-19.62 50.16c-26.58,-4.6 -48.47,-16.93 -65.69,-37 -17.21,-20.06 -25.82,-43.27 -25.82,-69.6 0,-31.36 11.45,-58 34.32,-79.95 22.88,-21.95 50.66,-32.92 83.35,-32.92l78.43 0 0 -43.9 -211.78 0 -13.08 0 -33.33 0 0 75.25 -117.66 0c-3.49,0 -6.53,1.25 -9.16,3.77 -2.61,2.5 -3.92,5.43 -3.92,8.77 0,5.02 1.96,9.41 5.89,13.17 3.92,3.76 8.5,5.64 13.72,5.64 11.77,-4.18 22.66,-6.27 32.69,-6.27 25.27,0 46.84,7.95 64.71,23.83 17.87,15.89 26.81,35.12 26.81,57.7 0,10.44 -2.29,21.1 -6.87,31.97 -4.58,10.87 -11.01,21.11 -19.28,30.73l-45.76 -31.35c4.36,-5.02 7.62,-10.14 9.8,-15.37 2.18,-5.22 3.27,-10.55 3.27,-15.98 0,-7.11 -3.16,-13.07 -9.48,-17.88 -6.32,-4.81 -14.05,-7.21 -23.2,-7.21 -16.13,0 -29.96,4.91 -41.51,14.74 -11.55,9.82 -17.32,21.63 -17.32,35.43 0,17.13 8.28,31.87 24.84,44.2 16.56,12.33 36.6,18.5 60.14,18.5l52.29 0 0 50.16 -52.29 0c-39.66,0 -73.54,-11.6 -101.65,-34.8 -28.11,-23.2 -42.16,-51.31 -42.16,-84.33 0,-13.38 2.83,-26.14 8.5,-38.25 5.66,-12.13 13.73,-22.37 24.18,-30.74 -10.45,-8.35 -18.52,-16.92 -24.18,-25.7 -5.67,-8.78 -8.5,-16.93 -8.5,-24.46 0,-15.46 6.43,-28.74 19.29,-39.81 12.85,-11.08 28.21,-16.62 46.07,-16.62l71.91 0 0 -25.09 -163.42 0 -13.07 0 -39.22 0 0 200.67 0 62.7 -58.83 0 0 -62.7 0 -200.67 -52.29 0 0 -50.16zm1070.69 50.16c6.1,5.02 10.9,11.4 14.38,19.14 3.49,7.73 5.23,15.98 5.23,24.76 0,24.25 -10.57,44.94 -31.7,62.08 -21.14,17.14 -46.52,25.7 -76.15,25.7 2.18,12.55 10.35,23 24.51,31.36 14.16,8.36 31.05,12.54 50.65,12.54 17,0 33.24,-5.43 48.7,-16.3 15.48,-10.87 27.57,-25.3 36.29,-43.27l0 -116.01 -71.91 0zm300.68 -50.16l322.91 0 13.08 0 313.1 0 9.81 0 304.6 0 13.08 0 202.63 0 13.07 0 303.95 0 0 50.16 -52.29 0 0 200.67 0 62.7 -58.84 0 0 -62.7 0 -18.81 -84.96 0c0,10.44 -4.47,19.33 -13.41,26.64 -8.93,7.32 -19.72,10.97 -32.35,10.97 -14.39,0 -26.7,-4.91 -36.94,-14.73 -10.24,-9.83 -15.36,-21.64 -15.36,-35.43 0,-12.13 3.82,-22.48 11.44,-31.04 7.63,-8.57 16.89,-12.86 27.79,-12.86l0 -125.41 -49.03 0 -13.07 0 -49.68 0c8.28,4.6 14.71,11.92 19.28,21.95 4.58,10.04 6.87,21.53 6.87,34.49 0,26.76 -8.06,50.16 -24.19,70.23 -16.12,20.07 -36.38,32.19 -60.79,36.37 4.79,13.37 11.99,24.04 21.57,31.98 9.58,7.94 19.82,11.92 30.72,11.92 6.1,0 11.88,-0.53 17.33,-1.57 5.44,-1.05 10.56,-2.62 15.36,-4.7l0 56.42c-4.8,2.1 -9.92,3.66 -15.36,4.71 -5.45,1.04 -11.23,1.57 -17.33,1.57 -21.78,0 -42.92,-9.2 -63.4,-27.59 -20.48,-18.4 -36.39,-42.64 -47.71,-72.74 -6.98,-0.42 -17.88,-5.64 -32.69,-15.68l19.61 -47.03c7.4,4.19 14.49,7.31 21.24,9.41 6.76,2.09 12.75,3.14 17.98,3.14 16.13,0 29.96,-5.54 41.5,-16.62 11.56,-11.08 17.33,-24.35 17.33,-39.82 0,-15.47 -5.77,-28.74 -17.33,-39.81 -11.54,-11.08 -25.37,-16.63 -41.5,-16.63l-61.44 0 -13.08 0 -39.23 0 0 200.67 0 62.7 -58.82 0 0 -62.7 0 -25.09c-10.03,7.94 -20.7,14.11 -32.03,18.5 -11.32,4.39 -22.44,6.59 -33.34,6.59 -32.68,0 -60.46,-9.83 -83.34,-29.48 -22.88,-19.65 -34.31,-43.27 -34.31,-70.86l0 -100.33 -23.53 0 -9.81 0 -42.49 0 0 200.67 0 62.7 -58.83 0 0 -62.7 0 -100.34 -78.43 0c-16.13,0 -29.96,5.54 -41.51,16.62 -11.55,11.08 -17.33,24.35 -17.33,39.82 0,12.54 4.91,24.14 14.71,34.8 9.81,10.66 22.33,17.87 37.59,21.64l-19.62 50.16c-26.58,-4.6 -48.47,-16.93 -65.69,-37 -17.21,-20.06 -25.82,-43.27 -25.82,-69.6 0,-31.36 11.45,-58 34.32,-79.95 22.88,-21.95 50.66,-32.92 83.35,-32.92l78.43 0 0 -43.9 -211.78 0 -13.08 0 -39.22 0 0 200.67 0 62.7 -58.83 0 0 -62.7 0 -100.34 -78.43 0c-16.13,0 -29.97,5.54 -41.51,16.62 -11.56,11.08 -17.33,24.35 -17.33,39.82 0,12.54 4.9,24.14 14.71,34.8 9.8,10.66 22.34,17.87 37.59,21.64l-19.61 50.16c-26.59,-4.6 -48.48,-16.93 -65.7,-37 -17.21,-20.06 -25.81,-43.27 -25.81,-69.6 0,-31.36 11.44,-58 34.31,-79.95 22.88,-21.95 50.67,-32.92 83.35,-32.92l78.43 0 0 -43.9 -224.86 0 0 -50.16zm528.16 385.63l-19.61 -40.75 68.64 -21.95 137.27 106.6 -29.42 28.22 -107.85 -87.79 -49.03 15.67zm213.09 -335.47l0 94.06c0,12.96 5.78,24.04 17.33,33.23 11.55,9.21 25.38,13.8 41.5,13.8 12.64,0 24.84,-3.65 36.61,-10.97 11.77,-7.31 21.36,-17.24 28.76,-29.79l0 -100.33 -124.2 0zm558.89 0l0 125.41 84.96 0 0 -125.41 -84.96 0zm313.75 -50.16l326.18 0 9.81 0 307.86 0 13.08 0 373.24 0 13.08 0 137.26 0 13.07 0 345.78 0 13.08 0 303.95 0 0 50.16 -52.28 0 0 200.67 0 62.7 -58.84 0 0 -62.7 0 -18.81 -84.98 0c0,10.44 -4.46,19.33 -13.39,26.64 -8.94,7.32 -19.72,10.97 -32.37,10.97 -14.37,0 -26.69,-4.91 -36.93,-14.73 -10.24,-9.83 -15.35,-21.64 -15.35,-35.43 0,-12.13 3.81,-22.48 11.43,-31.04 7.64,-8.57 16.89,-12.86 27.79,-12.86l0 -125.41 -49.03 0 -13.08 0 -39.21 0 0 200.67 0 62.7 -58.83 0 0 -62.7 0 -81.52 -65.36 0c4.35,5.01 7.62,10.13 9.8,15.36 2.18,5.22 3.27,10.55 3.27,15.99 0,24.25 -8.94,44.94 -26.81,62.08 -17.86,17.13 -39.43,25.7 -64.7,25.7 -25.28,0 -46.85,-8.57 -64.72,-25.7 -17.87,-17.14 -26.79,-37.83 -26.79,-62.08 0,-24.25 8.92,-44.94 26.79,-62.08 17.87,-17.14 39.44,-25.71 64.72,-25.71l143.8 0 0 -62.71 -247.74 0 -13.07 0 -39.22 0 0 200.67 0 62.7 -58.83 0 0 -62.7 0 -200.67 -39.21 0 -13.08 0 -39.23 0 0 200.67 0 62.7 -58.82 0 0 -62.7 0 -134.82c-9.15,5.01 -19.28,8.88 -30.4,11.6 -11.11,2.71 -22.76,4.07 -34.97,4.07 -12.64,0 -31.16,-2.08 -55.56,-6.27 -24.41,-4.18 -42.92,-6.27 -55.56,-6.27 -3.49,0 -6.53,1.26 -9.15,3.76 -2.62,2.51 -3.93,5.44 -3.93,8.78 0,5.02 1.97,9.41 5.89,13.17 3.92,3.76 8.5,5.64 13.72,5.64l58.83 0c20.06,0 37.04,7.31 50.99,21.95 13.95,14.64 20.92,32.4 20.92,53.3 0,24.24 -8.93,44.94 -26.81,62.08 -17.86,17.13 -39.43,25.71 -64.7,25.71 1.3,7.1 5.01,13.06 11.11,17.87 6.1,4.81 13.28,7.21 21.57,7.21l19.6 0 0 50.17 -19.6 0c-25.28,0 -46.85,-7.33 -64.71,-21.95 -17.87,-14.64 -26.81,-32.4 -26.81,-53.3l-6.53 0c-16.13,0 -29.96,-4.29 -41.51,-12.86 -11.55,-8.57 -17.32,-18.92 -17.32,-31.04 0,-12.11 5.12,-22.46 15.36,-31.03 10.24,-8.57 22.55,-12.86 36.93,-12.86 14.82,0 27.78,3.55 38.9,10.66 11.11,7.11 17.76,16.09 19.93,26.97 14.38,0 26.69,-4.29 36.93,-12.86 10.24,-8.57 15.37,-18.91 15.37,-31.04 0,-5.01 -2.51,-9.41 -7.52,-13.17 -5.01,-3.76 -11.22,-5.64 -18.63,-5.64l-65.36 0c-20.06,0 -37.05,-6.17 -50.99,-18.5 -13.95,-12.33 -20.92,-27.06 -20.92,-44.21 0,-17.97 7.63,-33.43 22.88,-46.4 15.25,-12.95 33.77,-19.44 55.56,-19.44 12.64,0 31.15,2.61 55.56,7.84 24.4,5.23 42.92,7.84 55.56,7.84 13.51,0 25.92,-1.57 37.26,-4.7 11.33,-3.14 20.7,-7.84 28.11,-14.11l0 -18.82 -275.19 0 -13.08 0 -39.21 0 0 200.67 0 62.7 -58.83 0 0 -62.7 0 -37.63 -143.81 87.78 -35.95 -43.88 114.39 -68.98c-10.9,-18.4 -24.08,-32.92 -39.55,-43.59 -15.46,-10.65 -30.83,-15.99 -46.08,-15.99 -5.67,0 -10.89,0.84 -15.69,2.52 -4.79,1.66 -9.15,3.97 -13.07,6.89l-22.88 -50.16c7.41,-5.85 15.69,-10.35 24.84,-13.49 9.15,-3.12 18.52,-4.7 28.11,-4.7 25.7,0 50.43,7.53 74.19,22.58 23.75,15.04 43.46,35.54 59.16,61.46l16.34 -9.42 0 -94.06 -209.82 0 -9.81 0 -42.49 0 0 200.67 0 62.7 -58.83 0 0 -62.7 0 -100.34 -78.44 0c-16.13,0 -29.96,5.54 -41.5,16.62 -11.56,11.08 -17.33,24.35 -17.33,39.82 0,12.54 4.91,24.14 14.71,34.8 9.8,10.66 22.33,17.87 37.59,21.64l-19.62 50.16c-26.58,-4.6 -48.47,-16.93 -65.7,-37 -17.2,-20.06 -25.81,-43.27 -25.81,-69.6 0,-31.36 11.44,-58 34.32,-79.95 22.87,-21.95 50.66,-32.92 83.34,-32.92l78.44 0 0 -43.9 -224.86 0 0 -50.16zm224.21 -116c0,-8.77 3.16,-16.3 9.48,-22.58 6.32,-6.27 14.05,-9.4 23.2,-9.4 9.15,0 16.88,3.13 23.2,9.4 6.32,6.28 9.48,13.81 9.48,22.58 0,8.78 -3.16,16.3 -9.48,22.57 -6.32,6.27 -14.05,9.41 -23.2,9.41 -9.15,0 -16.88,-3.14 -23.2,-9.41 -6.32,-6.27 -9.48,-13.79 -9.48,-22.57zm1040.62 316.66c0,8.78 3.16,16.2 9.47,22.25 6.32,6.07 14.06,9.11 23.22,9.11 9.14,0 16.88,-3.04 23.2,-9.11 6.32,-6.05 9.48,-13.47 9.48,-22.25 0,-8.78 -3.16,-16.2 -9.48,-22.26 -6.32,-6.06 -14.06,-9.09 -23.2,-9.09 -9.16,0 -16.9,3.03 -23.22,9.09 -6.31,6.06 -9.47,13.48 -9.47,22.26zm395.46 -150.5l0 125.41 84.98 0 0 -125.41 -84.98 0zm235.33 106.6l0 -62.7 65.36 0 0 62.7 -65.36 0zm0 156.77l0 -62.7 65.36 0 0 62.7 -65.36 0z"/>
   <polygon class="fil2" points="7276.33,18314.92 13731.77,18314.92 13731.77,18198.46 7276.33,18198.46 "/>
   <path class="fil2" d="M12999.92 12686.98l-675.06 608.84c-109.06,-183.88 -218.13,-367.76 -327.19,-551.65 416.12,-276.2 777.8,36.78 1002.25,-57.19z"/>
   <path class="fil2" d="M12099.78 13490.9c-188.06,161.35 -376.12,322.69 -564.17,484.03 -503.19,-801.05 -1006.39,-1602.11 -1509.58,-2403.17 477.77,7.49 923.89,158.59 1164.25,471.22 303.17,482.64 606.33,965.28 909.5,1447.92z"/>
   <path class="fil2" d="M8764.95 11869.11c682.02,-83.76 1185.89,258.06 1366.58,527.75 383.74,605.07 767.47,1210.15 1151.2,1815.22 -365.53,404.52 -652.64,525.51 -894.22,516.59l-888.69 -32.81c234.91,-229.42 566.04,-487.51 423.64,-1008.53 -386.17,-606.07 -772.34,-1212.15 -1158.51,-1818.22z"/>
  </g>
 </g>
</svg>
